
<svg xmlns="http://www.w3.org/2000/svg" viewBox="0 0 512 512">
  <defs>
    <linearGradient id="bg" x1="0" y1="0" x2="1" y2="1">
      <stop offset="0%" stop-color="#2a3142"/>
      <stop offset="100%" stop-color="#0b1020"/>
    </linearGradient>
    <linearGradient id="accent" x1="0" y1="0" x2="1" y2="1">
      <stop offset="0%" stop-color="#4f9eff"/>
      <stop offset="100%" stop-color="#1e6aff"/>
    </linearGradient>
  </defs>
  <rect width="512" height="512" rx="96" fill="url(#bg)"/>
  <g transform="translate(128,128)">
    <path d="M 64 8 C 30 8 4 34 4 68 L 4 200 L 120 200 L 120 68 C 120 34 94 8 60 8 Z" fill="url(#accent)" opacity="0.9"/>
    <rect x="100" y="60" width="168" height="18" rx="4" fill="#4f9eff"/>
    <rect x="100" y="90" width="130" height="18" rx="4" fill="#7aa6ff" opacity="0.7"/>
    <rect x="100" y="120" width="148" height="18" rx="4" fill="#7aa6ff" opacity="0.5"/>
    <rect x="100" y="150" width="110" height="18" rx="4" fill="#7aa6ff" opacity="0.3"/>
  </g>
  <circle cx="384" cy="128" r="56" fill="url(#accent)" opacity="0.85"/>
  <path d="M 384 100 L 397 120 L 416 122 L 402 136 L 406 154 L 384 146 L 362 154 L 366 136 L 352 122 L 371 120 Z" fill="#0b1020"/>
  <rect x="344" y="220" width="128" height="32" rx="16" fill="url(#accent)" opacity="0.8"/>
  <rect x="344" y="264" width="96" height="32" rx="16" fill="url(#accent)" opacity="0.6"/>
  <rect x="344" y="308" width="144" height="32" rx="16" fill="url(#accent)" opacity="0.5"/>
  <rect x="344" y="352" width="108" height="32" rx="16" fill="url(#accent)" opacity="0.35"/>
</svg>
